<mxfile host="Electron" agent="Mozilla/5.0 (Windows NT 10.0; Win64; x64) AppleWebKit/537.36 (KHTML, like Gecko) draw.io/26.0.16 Chrome/132.0.6834.196 Electron/34.2.0 Safari/537.36" version="26.0.16">
  <diagram name="Page-1" id="BtkNLjgq92ewmw66F5Rd">
    <mxGraphModel dx="1434" dy="836" grid="1" gridSize="10" guides="1" tooltips="1" connect="1" arrows="1" fold="1" page="1" pageScale="1" pageWidth="850" pageHeight="1100" background="#ffffff" math="0" shadow="0">
      <root>
        <mxCell id="0" />
        <mxCell id="1" parent="0" />
        <mxCell id="CMQk0Si9e9LeFETgrZ4B-1" value="Game" style="swimlane;fontStyle=1;align=center;verticalAlign=top;childLayout=stackLayout;horizontal=1;startSize=26;horizontalStack=0;resizeParent=1;resizeParentMax=0;resizeLast=0;collapsible=1;marginBottom=0;whiteSpace=wrap;html=1;" parent="1" vertex="1">
          <mxGeometry x="360" y="60" width="160" height="78" as="geometry" />
        </mxCell>
        <mxCell id="CMQk0Si9e9LeFETgrZ4B-2" value="+ GameBoard: GameBoard" style="text;strokeColor=none;fillColor=none;align=left;verticalAlign=top;spacingLeft=4;spacingRight=4;overflow=hidden;rotatable=0;points=[[0,0.5],[1,0.5]];portConstraint=eastwest;whiteSpace=wrap;html=1;" parent="CMQk0Si9e9LeFETgrZ4B-1" vertex="1">
          <mxGeometry y="26" width="160" height="26" as="geometry" />
        </mxCell>
        <mxCell id="CMQk0Si9e9LeFETgrZ4B-6" value="+ Players: Player[]" style="text;strokeColor=none;fillColor=none;align=left;verticalAlign=top;spacingLeft=4;spacingRight=4;overflow=hidden;rotatable=0;points=[[0,0.5],[1,0.5]];portConstraint=eastwest;whiteSpace=wrap;html=1;" parent="CMQk0Si9e9LeFETgrZ4B-1" vertex="1">
          <mxGeometry y="52" width="160" height="26" as="geometry" />
        </mxCell>
        <mxCell id="CMQk0Si9e9LeFETgrZ4B-5" value="«interface»&lt;br&gt;&lt;b&gt;Team&lt;/b&gt;" style="html=1;whiteSpace=wrap;" parent="1" vertex="1">
          <mxGeometry x="505" y="584" width="110" height="50" as="geometry" />
        </mxCell>
        <mxCell id="CMQk0Si9e9LeFETgrZ4B-7" value="GameBoard" style="swimlane;fontStyle=1;align=center;verticalAlign=top;childLayout=stackLayout;horizontal=1;startSize=26;horizontalStack=0;resizeParent=1;resizeParentMax=0;resizeLast=0;collapsible=1;marginBottom=0;whiteSpace=wrap;html=1;" parent="1" vertex="1">
          <mxGeometry x="160" y="280" width="240" height="164" as="geometry" />
        </mxCell>
        <mxCell id="CMQk0Si9e9LeFETgrZ4B-8" value="+ Board: Piece[][]" style="text;strokeColor=none;fillColor=none;align=left;verticalAlign=top;spacingLeft=4;spacingRight=4;overflow=hidden;rotatable=0;points=[[0,0.5],[1,0.5]];portConstraint=eastwest;whiteSpace=wrap;html=1;" parent="CMQk0Si9e9LeFETgrZ4B-7" vertex="1">
          <mxGeometry y="26" width="240" height="26" as="geometry" />
        </mxCell>
        <mxCell id="CMQk0Si9e9LeFETgrZ4B-20" value="+ Width: int" style="text;strokeColor=none;fillColor=none;align=left;verticalAlign=top;spacingLeft=4;spacingRight=4;overflow=hidden;rotatable=0;points=[[0,0.5],[1,0.5]];portConstraint=eastwest;whiteSpace=wrap;html=1;" parent="CMQk0Si9e9LeFETgrZ4B-7" vertex="1">
          <mxGeometry y="52" width="240" height="26" as="geometry" />
        </mxCell>
        <mxCell id="CMQk0Si9e9LeFETgrZ4B-21" value="+ Height: int" style="text;strokeColor=none;fillColor=none;align=left;verticalAlign=top;spacingLeft=4;spacingRight=4;overflow=hidden;rotatable=0;points=[[0,0.5],[1,0.5]];portConstraint=eastwest;whiteSpace=wrap;html=1;" parent="CMQk0Si9e9LeFETgrZ4B-7" vertex="1">
          <mxGeometry y="78" width="240" height="26" as="geometry" />
        </mxCell>
        <mxCell id="CMQk0Si9e9LeFETgrZ4B-40" value="" style="line;strokeWidth=1;fillColor=none;align=left;verticalAlign=middle;spacingTop=-1;spacingLeft=3;spacingRight=3;rotatable=0;labelPosition=right;points=[];portConstraint=eastwest;strokeColor=inherit;" parent="CMQk0Si9e9LeFETgrZ4B-7" vertex="1">
          <mxGeometry y="104" width="240" height="8" as="geometry" />
        </mxCell>
        <mxCell id="CMQk0Si9e9LeFETgrZ4B-41" value="+ getPiece(int x, int y): Piece" style="text;strokeColor=none;fillColor=none;align=left;verticalAlign=top;spacingLeft=4;spacingRight=4;overflow=hidden;rotatable=0;points=[[0,0.5],[1,0.5]];portConstraint=eastwest;whiteSpace=wrap;html=1;" parent="CMQk0Si9e9LeFETgrZ4B-7" vertex="1">
          <mxGeometry y="112" width="240" height="26" as="geometry" />
        </mxCell>
        <mxCell id="CMQk0Si9e9LeFETgrZ4B-42" value="+ setPiece(int x, int y, Piece piece): void" style="text;strokeColor=none;fillColor=none;align=left;verticalAlign=top;spacingLeft=4;spacingRight=4;overflow=hidden;rotatable=0;points=[[0,0.5],[1,0.5]];portConstraint=eastwest;whiteSpace=wrap;html=1;" parent="CMQk0Si9e9LeFETgrZ4B-7" vertex="1">
          <mxGeometry y="138" width="240" height="26" as="geometry" />
        </mxCell>
        <mxCell id="CMQk0Si9e9LeFETgrZ4B-12" value="Piece" style="swimlane;fontStyle=1;align=center;verticalAlign=top;childLayout=stackLayout;horizontal=1;startSize=26;horizontalStack=0;resizeParent=1;resizeParentMax=0;resizeLast=0;collapsible=1;marginBottom=0;whiteSpace=wrap;html=1;" parent="1" vertex="1">
          <mxGeometry x="180" y="540" width="200" height="138" as="geometry" />
        </mxCell>
        <mxCell id="CMQk0Si9e9LeFETgrZ4B-13" value="+ x: int" style="text;strokeColor=none;fillColor=none;align=left;verticalAlign=top;spacingLeft=4;spacingRight=4;overflow=hidden;rotatable=0;points=[[0,0.5],[1,0.5]];portConstraint=eastwest;whiteSpace=wrap;html=1;" parent="CMQk0Si9e9LeFETgrZ4B-12" vertex="1">
          <mxGeometry y="26" width="200" height="26" as="geometry" />
        </mxCell>
        <mxCell id="CMQk0Si9e9LeFETgrZ4B-22" value="+ y: int" style="text;strokeColor=none;fillColor=none;align=left;verticalAlign=top;spacingLeft=4;spacingRight=4;overflow=hidden;rotatable=0;points=[[0,0.5],[1,0.5]];portConstraint=eastwest;whiteSpace=wrap;html=1;" parent="CMQk0Si9e9LeFETgrZ4B-12" vertex="1">
          <mxGeometry y="52" width="200" height="26" as="geometry" />
        </mxCell>
        <mxCell id="CMQk0Si9e9LeFETgrZ4B-27" value="+ Owner: Team?" style="text;strokeColor=none;fillColor=none;align=left;verticalAlign=top;spacingLeft=4;spacingRight=4;overflow=hidden;rotatable=0;points=[[0,0.5],[1,0.5]];portConstraint=eastwest;whiteSpace=wrap;html=1;" parent="CMQk0Si9e9LeFETgrZ4B-12" vertex="1">
          <mxGeometry y="78" width="200" height="26" as="geometry" />
        </mxCell>
        <mxCell id="CMQk0Si9e9LeFETgrZ4B-14" value="" style="line;strokeWidth=1;fillColor=none;align=left;verticalAlign=middle;spacingTop=-1;spacingLeft=3;spacingRight=3;rotatable=0;labelPosition=right;points=[];portConstraint=eastwest;strokeColor=inherit;" parent="CMQk0Si9e9LeFETgrZ4B-12" vertex="1">
          <mxGeometry y="104" width="200" height="8" as="geometry" />
        </mxCell>
        <mxCell id="CMQk0Si9e9LeFETgrZ4B-15" value="+ interact(x int, y int): void" style="text;strokeColor=none;fillColor=none;align=left;verticalAlign=top;spacingLeft=4;spacingRight=4;overflow=hidden;rotatable=0;points=[[0,0.5],[1,0.5]];portConstraint=eastwest;whiteSpace=wrap;html=1;" parent="CMQk0Si9e9LeFETgrZ4B-12" vertex="1">
          <mxGeometry y="112" width="200" height="26" as="geometry" />
        </mxCell>
        <mxCell id="CMQk0Si9e9LeFETgrZ4B-23" value="Player" style="swimlane;fontStyle=1;align=center;verticalAlign=top;childLayout=stackLayout;horizontal=1;startSize=26;horizontalStack=0;resizeParent=1;resizeParentMax=0;resizeLast=0;collapsible=1;marginBottom=0;whiteSpace=wrap;html=1;" parent="1" vertex="1">
          <mxGeometry x="480" y="280" width="160" height="52" as="geometry" />
        </mxCell>
        <mxCell id="CMQk0Si9e9LeFETgrZ4B-24" value="+ Team: Team?" style="text;strokeColor=none;fillColor=none;align=left;verticalAlign=top;spacingLeft=4;spacingRight=4;overflow=hidden;rotatable=0;points=[[0,0.5],[1,0.5]];portConstraint=eastwest;whiteSpace=wrap;html=1;" parent="CMQk0Si9e9LeFETgrZ4B-23" vertex="1">
          <mxGeometry y="26" width="160" height="26" as="geometry" />
        </mxCell>
        <mxCell id="CMQk0Si9e9LeFETgrZ4B-30" value="" style="endArrow=diamondThin;endFill=0;endSize=24;html=1;rounded=0;edgeStyle=orthogonalEdgeStyle;" parent="1" source="CMQk0Si9e9LeFETgrZ4B-1" target="CMQk0Si9e9LeFETgrZ4B-7" edge="1">
          <mxGeometry width="160" relative="1" as="geometry">
            <mxPoint x="370" y="160" as="sourcePoint" />
            <mxPoint x="530" y="160" as="targetPoint" />
          </mxGeometry>
        </mxCell>
        <mxCell id="CMQk0Si9e9LeFETgrZ4B-31" value="" style="endArrow=diamondThin;endFill=0;endSize=24;html=1;rounded=0;edgeStyle=orthogonalEdgeStyle;" parent="1" source="CMQk0Si9e9LeFETgrZ4B-7" target="CMQk0Si9e9LeFETgrZ4B-12" edge="1">
          <mxGeometry width="160" relative="1" as="geometry">
            <mxPoint x="105" y="352" as="sourcePoint" />
            <mxPoint x="265" y="352" as="targetPoint" />
          </mxGeometry>
        </mxCell>
        <mxCell id="CMQk0Si9e9LeFETgrZ4B-32" value="" style="endArrow=diamondThin;endFill=0;endSize=24;html=1;rounded=0;edgeStyle=orthogonalEdgeStyle;" parent="1" source="CMQk0Si9e9LeFETgrZ4B-1" target="CMQk0Si9e9LeFETgrZ4B-23" edge="1">
          <mxGeometry width="160" relative="1" as="geometry">
            <mxPoint x="570" y="150" as="sourcePoint" />
            <mxPoint x="730" y="150" as="targetPoint" />
          </mxGeometry>
        </mxCell>
        <mxCell id="CMQk0Si9e9LeFETgrZ4B-33" value="1" style="text;html=1;align=center;verticalAlign=middle;resizable=0;points=[];autosize=1;strokeColor=none;fillColor=none;" parent="1" vertex="1">
          <mxGeometry x="440" y="138" width="30" height="30" as="geometry" />
        </mxCell>
        <mxCell id="CMQk0Si9e9LeFETgrZ4B-34" value="2 .." style="text;html=1;align=center;verticalAlign=middle;resizable=0;points=[];autosize=1;strokeColor=none;fillColor=none;" parent="1" vertex="1">
          <mxGeometry x="560" y="250" width="40" height="30" as="geometry" />
        </mxCell>
        <mxCell id="CMQk0Si9e9LeFETgrZ4B-35" value="1" style="text;html=1;align=center;verticalAlign=middle;resizable=0;points=[];autosize=1;strokeColor=none;fillColor=none;" parent="1" vertex="1">
          <mxGeometry x="280" y="250" width="30" height="30" as="geometry" />
        </mxCell>
        <mxCell id="CMQk0Si9e9LeFETgrZ4B-36" value="1" style="text;html=1;align=center;verticalAlign=middle;resizable=0;points=[];autosize=1;strokeColor=none;fillColor=none;" parent="1" vertex="1">
          <mxGeometry x="280" y="444" width="30" height="30" as="geometry" />
        </mxCell>
        <mxCell id="CMQk0Si9e9LeFETgrZ4B-37" value="1 .." style="text;html=1;align=center;verticalAlign=middle;resizable=0;points=[];autosize=1;strokeColor=none;fillColor=none;" parent="1" vertex="1">
          <mxGeometry x="280" y="510" width="40" height="30" as="geometry" />
        </mxCell>
        <mxCell id="CMQk0Si9e9LeFETgrZ4B-38" value="" style="endArrow=block;dashed=1;endFill=0;endSize=12;html=1;rounded=0;edgeStyle=orthogonalEdgeStyle;" parent="1" source="CMQk0Si9e9LeFETgrZ4B-12" target="CMQk0Si9e9LeFETgrZ4B-5" edge="1">
          <mxGeometry width="160" relative="1" as="geometry">
            <mxPoint x="560" y="510" as="sourcePoint" />
            <mxPoint x="720" y="510" as="targetPoint" />
          </mxGeometry>
        </mxCell>
        <mxCell id="CMQk0Si9e9LeFETgrZ4B-39" value="" style="endArrow=block;dashed=1;endFill=0;endSize=12;html=1;rounded=0;edgeStyle=orthogonalEdgeStyle;" parent="1" source="CMQk0Si9e9LeFETgrZ4B-23" target="CMQk0Si9e9LeFETgrZ4B-5" edge="1">
          <mxGeometry width="160" relative="1" as="geometry">
            <mxPoint x="710" y="320" as="sourcePoint" />
            <mxPoint x="870" y="320" as="targetPoint" />
          </mxGeometry>
        </mxCell>
        <mxCell id="JJ-PHoQsl7u1V4npcd4e-2" value="&lt;span style=&quot;text-wrap-mode: nowrap;&quot;&gt;This diagram was a very early prototype from our Game Logic team&#39;s first meeting.&lt;/span&gt;" style="shape=note;whiteSpace=wrap;html=1;backgroundOutline=1;darkOpacity=0.05;align=left;verticalAlign=bottom;size=12;" vertex="1" parent="1">
          <mxGeometry x="210" y="30" width="460" height="20" as="geometry" />
        </mxCell>
      </root>
    </mxGraphModel>
  </diagram>
</mxfile>
